# xmcd
#
# Track frame offsets:
#	150
#	12872
#	26652
#	39739
#	54462
#	67584
#	81439
#	93033
#	107746
#	118123
#	132391
#	146391
#	162813
#	174995
#
# Disc length: 2475 seconds
#
# Revision: 1
# Processed by: cddbd v1.5.2PL0 Copyright (c) Steve Scherf et al.
# Submitted via: audiograbber 1.83.01
#
DISCID=ad09a90e
DTITLE=Various Artist - All Time Greatest Blues Songs - CD 1
DYEAR=2012
DGENRE=Blues
TTITLE0=Elmore James  - Dust My Broom
TTITLE1=T Bone Walker - Stormy Monday
TTITLE2=Muddy Waters - Hoochie Coochie Man
TTITLE3=Lightnin Slim - The Things That I Used To Do
TTITLE4=Howlin Wolf - Back Door Man
TTITLE5=Robert Johnson - Sweet Home Chicago
TTITLE6=John Lee Hooker - Boom Boom
TTITLE7=Big Joe Williams - Highway 49
TTITLE8=Robert Johnson - Stop Breakin' Down
TTITLE9=John Lee Hooker - I'm In The Mood
TTITLE10=BB King - Three O'Clock Blues
TTITLE11=Big Bill Broonzy - Key To The Highway
TTITLE12=Rock Me Mama - Rock Me Mama
TTITLE13=Robert Johnson - Love In Vain
EXTD=
EXTT0=
EXTT1=
EXTT2=
EXTT3=
EXTT4=
EXTT5=
EXTT6=
EXTT7=
EXTT8=
EXTT9=
EXTT10=
EXTT11=
EXTT12=
EXTT13=
PLAYORDER=
